<svg width="57" height="54" viewBox="0 0 57 54" fill="none" xmlns="http://www.w3.org/2000/svg">
<path d="M48.5391 6.75H39.7441C38.5529 6.75 37.9629 8.11055 38.7979 8.91211L40.6793 10.6945L31.6951 19.2059C29.2236 17.7293 26.2957 16.875 23.1562 16.875C14.3057 16.875 7.125 23.6777 7.125 32.0625C7.125 40.4473 14.3057 47.25 23.1562 47.25C32.0068 47.25 39.1875 40.4473 39.1875 32.0625C39.1875 29.0883 38.2857 26.3145 36.7271 23.973L45.7113 15.4617L47.5928 17.2441C48.4389 18.0457 49.875 17.4762 49.875 16.3477V8.01562C49.875 7.31953 49.2738 6.75 48.5391 6.75ZM23.1562 40.5C18.2467 40.5 14.25 36.7137 14.25 32.0625C14.25 27.4113 18.2467 23.625 23.1562 23.625C28.0658 23.625 32.0625 27.4113 32.0625 32.0625C32.0625 36.7137 28.0658 40.5 23.1562 40.5Z" fill="#FFFEFE"/>
</svg>
