<svg width="68" height="47" viewBox="0 0 68 47" fill="none" xmlns="http://www.w3.org/2000/svg">
<path d="M53.125 16.1562C53.125 8.8584 44.5586 2.9375 34 2.9375C23.4414 2.9375 14.875 8.8584 14.875 16.1562C14.875 22.4443 21.2367 27.7135 29.75 29.0445V33.7812H24.9688C24.0922 33.7812 23.375 34.277 23.375 34.8828V38.5547C23.375 39.1605 24.0922 39.6562 24.9688 39.6562H29.75V42.9609C29.75 43.5668 30.4672 44.0625 31.3438 44.0625H36.6562C37.5328 44.0625 38.25 43.5668 38.25 42.9609V39.6562H43.0312C43.9078 39.6562 44.625 39.1605 44.625 38.5547V34.8828C44.625 34.277 43.9078 33.7812 43.0312 33.7812H38.25V29.0445C46.7633 27.7135 53.125 22.4443 53.125 16.1562ZM23.375 16.1562C23.375 12.108 28.143 8.8125 34 8.8125C39.857 8.8125 44.625 12.108 44.625 16.1562C44.625 20.2045 39.857 23.5 34 23.5C28.143 23.5 23.375 20.2045 23.375 16.1562Z" fill="#FFFEFE"/>
</svg>
